<svg xmlns="http://www.w3.org/2000/svg" xmlns:xlink="http://www.w3.org/1999/xlink" version="1.1"
    x="0px" y="0px" viewBox="0 0 80 100" enable-background="new 0 0 80 80" xml:space="preserve"><g><ellipse cx="40.011" cy="41.961" rx="12.021" ry="12.319"/><ellipse cx="40.011" cy="66.937" rx="19.394" ry="9.333"/><path d="M24.804,47.224c0.046,0,0.091-0.007,0.138-0.007c-0.551-1.65-0.856-3.416-0.856-5.255c0-6.788,4.068-12.617,9.835-15.073   c-2.205-2.63-5.467-4.303-9.116-4.303c-6.639,0-12.021,5.516-12.021,12.319C12.783,41.708,18.165,47.224,24.804,47.224z"/><path d="M55.935,41.961c0,1.84-0.305,3.605-0.856,5.255c0.046,0.001,0.091,0.007,0.138,0.007c6.639,0,12.021-5.516,12.021-12.319   c0-6.804-5.382-12.319-12.021-12.319c-3.649,0-6.912,1.672-9.116,4.303C51.867,29.344,55.935,35.173,55.935,41.961z"/><path d="M55.217,50.547c-0.576,0-1.143,0.018-1.707,0.041c-0.97,1.583-2.194,2.988-3.618,4.147   c8.139,2.01,13.415,6.534,13.415,12.202c0,0.49-0.04,0.972-0.118,1.444c6.73-1.464,11.421-4.716,11.421-8.501   C74.611,54.726,65.928,50.547,55.217,50.547z"/><path d="M30.129,54.735c-1.424-1.159-2.648-2.563-3.618-4.147c-0.563-0.024-1.131-0.041-1.707-0.041   c-10.711,0-19.394,4.179-19.394,9.333c0,3.785,4.691,7.037,11.421,8.501c-0.077-0.472-0.118-0.954-0.118-1.444   C16.714,61.27,21.991,56.745,30.129,54.735z"/></g></svg>