<svg xmlns="http://www.w3.org/2000/svg" viewBox="0 0 32 32" id="rating" fill="antiquewhite">
    <path
        d="M20.08,19.34a1,1,0,0,1-.41,1,1,1,0,0,1-.58.18,1,1,0,0,1-.48-.12L16,18.93l-2.61,1.45a1,1,0,0,1-1.47-1l.51-3.12L10.28,14a1,1,0,0,1-.23-1,1,1,0,0,1,.8-.67l2.93-.45,1.31-2.8a1,1,0,0,1,1.82,0l1.31,2.8,2.93.45A1,1,0,0,1,22,13a1,1,0,0,1-.23,1l-2.15,2.2Zm-9.93-2.77-2.24-.34-1-2.15a1,1,0,0,0-1.82,0l-1,2.15-2.24.34a1,1,0,0,0-.57,1.68l1.65,1.69-.39,2.4a1,1,0,0,0,1.47,1l2-1.1,2,1.1a1,1,0,0,0,.48.12,1,1,0,0,0,1-1.16l-.39-2.4,1.65-1.69a1,1,0,0,0-.57-1.68Zm20.8.67a1,1,0,0,0-.8-.67l-2.24-.34-1-2.15a1,1,0,0,0-1.82,0l-1,2.15-2.24.34a1,1,0,0,0-.57,1.68l1.65,1.69-.39,2.4a1,1,0,0,0,1.47,1l2-1.1,2,1.1a1,1,0,0,0,.48.12,1,1,0,0,0,1-1.16l-.39-2.4,1.65-1.69A1,1,0,0,0,31,17.24Z"></path>
</svg>